<svg width="182" height="60" viewBox="0 0 182 60" fill="none" xmlns="http://www.w3.org/2000/svg">
<path d="M20.7109 33.4042V33.3616C20.7109 29.0404 24.1214 25.4998 28.8105 25.4998C33.4996 25.4998 36.8676 28.9953 36.8676 33.3191V33.3616C36.8676 37.6829 33.4571 41.2235 28.768 41.2235C24.0789 41.2235 20.7109 37.728 20.7109 33.4067V33.4042ZM33.372 33.4042V33.3616C33.372 30.7544 31.4603 28.585 28.768 28.585C26.0756 28.585 24.2065 30.7143 24.2065 33.3191V33.3616C24.2065 35.9689 26.1182 38.1383 28.8105 38.1383C31.5029 38.1383 33.372 36.009 33.372 33.4042Z" fill="black"/>
<path d="M38.7236 25.76H45.6722C47.6039 25.76 49.1027 26.303 50.1036 27.3014C50.9493 28.1471 51.4072 29.3431 51.4072 30.7769V30.8194C51.4072 33.2741 50.0836 34.8154 48.1494 35.5311L51.8626 40.9608H47.9542L44.6964 36.0966H42.0691V40.9608H38.7236V25.76ZM45.457 33.144C47.0859 33.144 48.0193 32.2757 48.0193 30.9946V30.9521C48.0193 29.5183 47.0209 28.7802 45.392 28.7802H42.0691V33.1465H45.457V33.144Z" fill="black"/>
<path d="M52.3555 25.6949H55.9286L59.0688 35.9589L62.4693 25.6523H65.3268L68.7273 35.9589L71.8675 25.6949H75.3531L70.1786 40.9607H67.276L63.8555 31.0421L60.435 40.9607H57.5325L52.358 25.6949H52.3555Z" fill="black"/>
<path d="M90.9043 25.76H97.8529C99.7846 25.76 101.283 26.303 102.284 27.3014C103.13 28.1471 103.588 29.3431 103.588 30.7769V30.8194C103.588 33.2741 102.264 34.8154 100.33 35.5311L104.043 40.9608H100.135L96.877 36.0966H94.2497V40.9608H90.9043V25.76ZM97.6377 33.144C99.2666 33.144 100.2 32.2757 100.2 30.9946V30.9521C100.2 29.5183 99.2016 28.7802 97.5726 28.7802H94.2497V33.1465H97.6377V33.144Z" fill="black"/>
<path d="M106.396 25.76H112.323C117.1 25.76 120.403 29.0404 120.403 33.3166V33.3592C120.403 37.6379 117.102 40.9608 112.323 40.9608H106.396V25.76ZM109.741 28.7777V37.9432H112.326C115.063 37.9432 116.907 36.0966 116.907 33.4042V33.3617C116.907 30.6693 115.061 28.7802 112.326 28.7802H109.741V28.7777Z" fill="black"/>
<path d="M82.9656 25.6523H79.8829L73.3672 40.9632H76.7777L78.1664 37.5528L79.3724 34.6002L81.3817 29.6684L83.391 34.6002L84.5945 37.5528L84.7822 38.0082H81.0214L79.8153 40.9632H85.9857H86.246H89.4813L82.9656 25.6523Z" fill="black"/>
<path d="M19.8124 28.8002V25.76H8.2373V28.8002H11.5802H19.8124Z" fill="black"/>
<path d="M8.2373 32.0354V40.9632H11.5802V35.0781H18.8341V32.0354H11.5802H8.2373Z" fill="black"/>
<path d="M161.26 51.8453H142.854L154.101 34.4376L137.231 8.32471H155.635L172.507 34.4376L161.26 51.8453Z" fill="url(#paint0_linear_2828_6891)"/>
<path d="M133.651 34.4376L122.403 51.8453H140.809L152.057 34.4376L137.999 12.676H122.403V17.0273L133.651 34.4376Z" fill="url(#paint1_linear_2828_6891)"/>
<path d="M164.778 12.9763L162.734 16.1591L157.672 8.32471H161.77L164.778 12.9763Z" fill="url(#paint2_linear_2828_6891)"/>
<defs>
<linearGradient id="paint0_linear_2828_6891" x1="195.112" y1="67.7517" x2="127.048" y2="11.8553" gradientUnits="userSpaceOnUse">
<stop stop-color="#FE9051"/>
<stop offset="0.37" stop-color="#9D4EDD"/>
<stop offset="0.97" stop-color="#3D1DBE"/>
</linearGradient>
<linearGradient id="paint1_linear_2828_6891" x1="107.65" y1="-1.66652" x2="149.847" y2="61.819" gradientUnits="userSpaceOnUse">
<stop stop-color="#FE9051"/>
<stop offset="0.48" stop-color="#9D4EDD"/>
<stop offset="0.89" stop-color="#3D1DBE"/>
</linearGradient>
<linearGradient id="paint2_linear_2828_6891" x1="186.147" y1="50.932" x2="155.778" y2="1.84657" gradientUnits="userSpaceOnUse">
<stop stop-color="#FE9051"/>
<stop offset="0.55" stop-color="#9D4EDD"/>
<stop offset="1" stop-color="#3D1DBE"/>
</linearGradient>
</defs>
</svg>
